<?xml version="1.0" encoding="utf-8"?>
<!-- Generator: Adobe Illustrator 26.3.1, SVG Export Plug-In . SVG Version: 6.00 Build 0)  -->
<svg version="1.1" id="Layer_1" xmlns="http://www.w3.org/2000/svg" xmlns:xlink="http://www.w3.org/1999/xlink" x="0px" y="0px"
	 viewBox="0 0 256.6 256.5" style="enable-background:new 0 0 256.6 256.5;" xml:space="preserve">
<style type="text/css">
	.st0{fill:url(#SVGID_1_);}
	.st1{fill:none;}
	.st2{fill:#E2DDED;}
	.st3{fill:none;stroke:#FF00FF;stroke-width:0;stroke-linecap:round;stroke-linejoin:round;}
	.st4{opacity:0.1;fill:url(#SVGID_00000042723182295588193660000011673508835696991154_);}
	.st5{fill:#ECE7F6;}
	.st6{fill:#EC1F2E;}
	.st7{fill:#EFEFEF;}
	.st8{opacity:0.1;fill:url(#SVGID_00000012442459987484480540000011595660235642792580_);}
	.st9{opacity:0.1;fill:url(#SVGID_00000147192810628986735710000016809748881737054352_);}
	.st10{opacity:5.000000e-02;fill:url(#SVGID_00000057864104599335096190000009678303737038431678_);}
	.st11{fill:#F2F2F9;}
	.st12{fill:none;stroke:#C61E1E;stroke-width:0.25;stroke-miterlimit:10;}
	.st13{opacity:5.000000e-02;fill:url(#SVGID_00000075148039088792787920000000822600983697164185_);}
</style>
<g>
	<linearGradient id="SVGID_1_" gradientUnits="userSpaceOnUse" x1="41.5373" y1="43.4666" x2="212.2384" y2="214.1678">
		<stop  offset="3.091156e-03" style="stop-color:#1BB3FD"/>
		<stop  offset="1" style="stop-color:#0C5DD8"/>
	</linearGradient>
	<path class="st0" d="M233.3,185.5c0,27.3-22.4,49.7-49.7,49.7h-113c-27.3,0-49.7-22.4-49.7-49.7v-113c0-27.3,22.4-49.7,49.7-49.7
		h113c27.3,0,49.7,22.4,49.7,49.7V185.5z"/>
	<path class="st1" d="M172.6,97.4c-1.8-2.6-3.9-5-6.1-7.2c-2.2-2.2-4.6-4.3-7.2-6.1c-5.3-3.8-11.4-6.7-17.9-8.4
		c-4.5-1.2-9.2-1.8-14-1.8c-4.8,0-9.5,0.6-14,1.8c-6.5,1.7-12.6,4.6-17.9,8.4c-2.6,1.8-5,3.9-7.2,6.1c-2.2,2.2-4.3,4.6-6.1,7.2
		c-3.8,5.3-6.7,11.4-8.4,17.9c-1.2,4.5-1.8,9.2-1.8,14v0c0,4.8,0.6,9.5,1.8,14c1.7,6.5,4.6,12.6,8.4,17.9c1.8,2.6,3.9,5,6.1,7.2
		c2.2,2.2,4.6,4.3,7.2,6.1c5.3,3.8,11.4,6.7,17.9,8.4c4.5,1.2,9.2,1.8,14,1.8c4.8,0,9.5-0.6,14-1.8c6.5-1.7,12.6-4.6,17.9-8.4
		c2.6-1.8,5-3.9,7.2-6.1c2.2-2.2,4.3-4.6,6.1-7.2c3.8-5.3,6.7-11.4,8.4-17.9c1.2-4.5,1.8-9.2,1.8-14v0c0-4.8-0.6-9.5-1.8-14
		C179.3,108.8,176.4,102.7,172.6,97.4z M127.5,129.3L127.5,129.3L127.5,129.3L127.5,129.3L127.5,129.3z"/>
	<path class="st2" d="M215.1,129.3l-23.6-9.7c-1.8-12.1-7.1-23.2-14.7-32.1l5.4-12.9h0l-12.9,5.4c-9-7.6-20-12.8-32.1-14.7
		l-9.7-23.6l-9.7,23.6c-12.1,1.8-23.2,7.1-32.1,14.7l-12.9-5.4l5.4,12.9c-7.6,9-12.8,20-14.7,32.1l-23.6,9.7l0,0l23.6,9.7
		c1.8,12.1,7.1,23.2,14.7,32.1L72.7,184l0,0l12.9-5.4c9,7.6,20,12.8,32.1,14.7l9.7,23.6l9.7-23.6c12.1-1.8,23.2-7.1,32.1-14.7
		l12.9,5.4l0,0l-5.4-12.9c7.6-9,12.8-20,14.7-32.1L215.1,129.3z M182.8,129.3c0,4.8-0.6,9.5-1.8,14c-1.7,6.5-4.6,12.6-8.4,17.9
		c-1.8,2.6-3.9,5-6.1,7.2c-2.2,2.2-4.6,4.3-7.2,6.1c-5.3,3.8-11.4,6.7-17.9,8.4c-4.5,1.2-9.2,1.8-14,1.8c-4.8,0-9.5-0.6-14-1.8
		c-6.5-1.7-12.6-4.6-17.9-8.4c-2.6-1.8-5-3.9-7.2-6.1c-2.2-2.2-4.3-4.6-6.1-7.2c-3.8-5.3-6.7-11.4-8.4-17.9c-1.2-4.5-1.8-9.2-1.8-14
		v0c0-4.8,0.6-9.5,1.8-14c1.7-6.5,4.6-12.6,8.4-17.9c1.8-2.6,3.9-5,6.1-7.2c2.2-2.2,4.6-4.3,7.2-6.1c5.3-3.8,11.4-6.7,17.9-8.4
		c4.5-1.2,9.2-1.8,14-1.8c4.8,0,9.5,0.6,14,1.8c6.5,1.7,12.6,4.6,17.9,8.4c2.6,1.8,5,3.9,7.2,6.1c2.2,2.2,4.3,4.6,6.1,7.2
		c3.8,5.3,6.7,11.4,8.4,17.9C182.2,119.7,182.8,124.4,182.8,129.3L182.8,129.3z"/>
	<line class="st3" x1="127.5" y1="129.3" x2="127.5" y2="129.3"/>
	<g>
		
			<linearGradient id="SVGID_00000102543987012568862350000009381892845433871792_" gradientUnits="userSpaceOnUse" x1="129.3992" y1="126.6431" x2="207.2315" y2="229.8866">
			<stop  offset="0" style="stop-color:#000000"/>
			<stop  offset="1" style="stop-color:#FFFFFF"/>
		</linearGradient>
		<path style="opacity:0.1;fill:url(#SVGID_00000102543987012568862350000009381892845433871792_);" d="M197.5,76.7l35.9,36.1v72.7
			c0,27.3-22.4,49.7-49.7,49.7h-70.3l-56.9-53.6"/>
		<polygon class="st5" points="136.3,138.3 127.1,129.3 117.8,119.7 56.4,181.6 151.3,181.1 151.5,157.7 116.9,157.8 		"/>
		<polygon class="st6" points="117.8,119.7 126.7,129 136.3,138.3 197.4,76.7 102.5,77.2 102.3,100.6 136.9,100.5 		"/>
		<path class="st7" d="M172.6,203.2"/>
		
			<linearGradient id="SVGID_00000027593040484264503890000015086087531525206148_" gradientUnits="userSpaceOnUse" x1="97.4134" y1="127.1811" x2="161.1419" y2="127.1811" gradientTransform="matrix(0.9903 0.139 -0.139 0.9903 11.3872 7.1397)">
			<stop  offset="0" style="stop-color:#000000"/>
			<stop  offset="1" style="stop-color:#FFFFFF"/>
		</linearGradient>
		<polygon style="opacity:0.1;fill:url(#SVGID_00000027593040484264503890000015086087531525206148_);" points="87,169 87,169 
			126.7,129 136.3,138.3 116.9,157.8 151.6,157.7 151.4,168.7 		"/>
		
			<linearGradient id="SVGID_00000120543026084167512430000005139305196364452761_" gradientUnits="userSpaceOnUse" x1="100.0023" y1="77.7763" x2="193.8849" y2="77.7763" gradientTransform="matrix(0.9903 0.139 -0.139 0.9903 11.3872 7.1397)">
			<stop  offset="0" style="stop-color:#000000"/>
			<stop  offset="1" style="stop-color:#FFFFFF"/>
		</linearGradient>
		<polygon style="opacity:0.1;fill:url(#SVGID_00000120543026084167512430000005139305196364452761_);" points="102.4,88.8 
			102.5,77.2 197.4,76.7 136.3,138.3 126.7,129 167.5,88.9 		"/>
		
			<linearGradient id="SVGID_00000177466970337465836180000015091788857684882090_" gradientUnits="userSpaceOnUse" x1="133.1724" y1="101.4618" x2="158.8391" y2="127.1285" gradientTransform="matrix(0.9903 0.139 -0.139 0.9903 11.3872 7.1397)">
			<stop  offset="0" style="stop-color:#000000"/>
			<stop  offset="1" style="stop-color:#FFFFFF"/>
		</linearGradient>
		<polygon style="opacity:5.000000e-02;fill:url(#SVGID_00000177466970337465836180000015091788857684882090_);" points="
			156.6,170.9 120.9,134.9 132.6,123.5 168.9,159.2 		"/>
		<circle class="st11" cx="126.7" cy="129" r="8.3"/>
	</g>
	<path class="st12" d="M120.6,134.9"/>
</g>
<linearGradient id="SVGID_00000065056640983971137500000009013691731955180211_" gradientUnits="userSpaceOnUse" x1="120.9081" y1="130.2262" x2="135.0247" y2="130.2262">
	<stop  offset="0" style="stop-color:#000000"/>
	<stop  offset="1" style="stop-color:#FFFFFF"/>
</linearGradient>
<path style="opacity:5.000000e-02;fill:url(#SVGID_00000065056640983971137500000009013691731955180211_);" d="M132.6,123.2
	c3.2,3.2,3.2,8.4-0.1,11.7c-3.2,3.2-8.5,3.2-11.7,0L132.6,123.2z"/>
</svg>
